<?xml version="1.0" encoding="UTF-8"?><svg id="_ﾃ神ﾃ神ﾃ神ﾃ神1" xmlns="http://www.w3.org/2000/svg" viewBox="0 0 331.54 657.41"><path d="m271.97,544.21l-.7,94c-15.9,6-32.4,10.6-49.4,13.9h-68.5l3.9-107.9h114.7Z" style="fill:#8fb2ee; fill-rule:evenodd;"/><path d="m50.67,548.91l1.2,86.2c18.4,7.5,37.6,13.3,57.6,17.1h62l9.2-106.3-130,3Z" style="fill:#8fb2ee; fill-rule:evenodd;"/><path d="m287.37,631.71l-1.8-235,4.4-161.5c-34.3-19.1-77.5-29.2-126.4-29.2s-92.1,10.1-126.4,29.2l2.1,157.9,1.7,237.2c38,17.4,80.2,27.1,124.7,27.1,43.3,0,84.5-9.2,121.7-25.7Z" style="fill:#fff; fill-rule:evenodd;"/><polygon points="108.07 210.71 166.47 324.21 223.67 211.61 201.27 205.31 133.17 205.31 108.07 210.71" style="fill:#8fb2ee; fill-rule:evenodd;"/><polyline points="166.77 324.01 221.97 282.11 215.27 263.61 235.67 250.01 228.67 215.01" style="fill:none; stroke:#8fb2ee; stroke-miterlimit:22.93; stroke-width:2.39px;"/><polyline points="166.77 324.01 110.97 282.11 117.37 263.61 96.67 250.01 103.17 215.01" style="fill:none; stroke:#8fb2ee; stroke-miterlimit:22.93; stroke-width:2.39px;"/><path d="m203.77,208.41c0,57.2-80.4,57.2-80.4,0l7.5-86.5h65.4l7.5,86.5Z" style="fill:#f2b88e; fill-rule:evenodd;"/><polygon points="172.47 261.41 178.07 301.41 166.47 324.21 154.47 301.21 159.37 261.41 147.47 249.41 156.77 235.61 165.77 243.21 174.77 235.61 184.27 249.41 172.47 261.41" style="fill:#0d0c40; fill-rule:evenodd;"/><polygon points="165.67 243.31 191.87 256.51 213.17 208.81 204.47 205.71 165.67 243.31" style="fill:#8fb2ee; fill-rule:evenodd;"/><polygon points="165.77 243.21 139.77 256.51 114.57 209.61 123.27 206.51 165.77 243.21" style="fill:#8fb2ee; fill-rule:evenodd;"/><line x1="165.87" y1="322.11" x2="164.87" y2="652.11" style="fill:none; stroke:#8fb2ee; stroke-miterlimit:22.93; stroke-width:2.39px;"/><path d="m27.37,495.81c57.9.3,138.2-31.6,178.7-49.5l-82.2-20.3-7.3-18.9c-18.5,3.3-36.4,6.6-51.3,9.5-3-40.9-4.7-88.2-5.4-110.5-.5-17.5.8-72.6-22.7-70.9-47.5,46.7-46.1,214.3-14.8,260.6h5Z" style="fill:#fff; fill-rule:evenodd;"/><path d="m105.67,396.61c-6-2.6-34.5-16.6-43-20.4.9,16.1,1.9,32.8,3.1,48.3,3.5.2,11.9,1.6,15.7,2.5,4.3,1,19.7,1.8,22.4.4s7-6.2,7-6.2l-5.2-24.6Z" style="fill:#f2b88e; fill-rule:evenodd;"/><polygon points="97.57 391.71 94.37 430.01 109.37 432.91 118.77 397.11 97.57 391.71" style="fill:#8fb2ee; fill-rule:evenodd;"/><path d="m64.07,424.31c-14.2,8.8-38.7,10.2-42.6,26.4-3,12.7,29.3-17.8,38.2-8.3,9.1,9.8-6.3,26-9.5,39" style="fill:none; stroke:#8fb2ee; stroke-miterlimit:22.93; stroke-width:2.39px;"/><path d="m311.57,497.31h-.1c-80.6.7-208.3-62.6-208.3-62.6l9-39.4s97.3,18.8,157.5,31.2c-.1-43.2-3.1-96.3-2.4-120.3.5-17.5-.8-72.6,22.7-70.9,52.1,28.6,49.6,218.5,21.6,262h0Z" style="fill:#fff; fill-rule:evenodd;"/><path d="m315.17,415.21c2.5-.4,4.6-2.4,5.2-3.4s-18.7-12.4-18.7-12.4c0,0,8.8,14.3,13.5,15.8Z" style="fill:#edba68; fill-rule:evenodd;"/><path d="m235.47,398.01c7-3,43.6-21.4,45.3-21.7,1.6-.3,26.3,3.7,26.3,3.7l23.1,20.1s-9.2.1-12.2-1.1-9.7-7.8-9.7-7.8l-12.8-.6,9.6,7.3s24.8,23.4,26.3,24.1-6.9,2.3-11.1.4-15.5-10.1-15.5-10.1c0,0,12.6,14,14,15.7-1.1,1.3-4.7,1.8-7.5.7l.7,1.3s-5.5,2.2-11.6.6-9.1-4.6-9.1-4.6c0,0-12.3,0-14.4-.3-1-.1-4.2.3-7.7.8v-.1c-11.6-2.4-24.5-5-37.8-7.7l4.1-20.7Z" style="fill:#f2b88e; fill-rule:evenodd;"/><path d="m289.37,398.51s4.9,3.3,9.2,7.4c4.3,4.2,7.4,8.5,7.4,8.5" style="fill:none; stroke:#000; stroke-miterlimit:22.93; stroke-width:2.39px;"/><path d="m310.87,428.61c-4.7-2.7-13.4-9.2-15.7-10.5-2.3-1.3-15.8-3.9-15.8-3.9" style="fill:none; stroke:#000; stroke-miterlimit:22.93; stroke-width:2.39px;"/><path d="m245.37,390.21l2.8,31.9c-5.8-1.2-11.8-2.4-17.9-3.6l-6.1-22.8,21.2-5.5Z" style="fill:#8fb2ee; fill-rule:evenodd;"/><path d="m231.57,418.71l-.1-31.6s-40.4,6.8-85.2,14.7c23.4,4.6,55.4,10.9,85.3,16.9Z" style="fill:#fff; fill-rule:evenodd;"/><path d="m277.17,430.31s30.5,17,32,42.7c.9,15-25.1-20.7-25.1-20.7" style="fill:none; stroke:#8fb2ee; stroke-miterlimit:22.93; stroke-width:2.39px;"/><path d="m127.57,363.21l-1.7.4-1.4.4.4,1.4.8,2.8.4,1.3,1.3-.4,1.1-.3h0l.5-.1h0c4.3-1.1,6.7-1.7,9.3-5.5,1-1.4,1.7-3.8,1.8-7,.5-14.5-13.6-44.7-22.7-50.6l-1.1-.7-.8,1.1-1.7,2.3-.9,1.2,1.3.8s1.5,1,5.4,7.4c6.7,10.9,15,24.7,14.9,37.9,0,2.2-.3,3.7-.8,4.4-1.5,2.1-3.2,2.5-6.1,3.2Z" style="fill:#8fb2ee; fill-rule:evenodd;"/><path d="m126.97,371.21c3.2-.8,5.2-3.6,4.5-6-.7-2.5-3.9-3.8-7.1-3-3.2.8-5.2,3.5-4.5,6,.7,2.5,3.9,3.8,7.1,3Z" style="fill:#0d0c40; fill-rule:evenodd;"/><path d="m98.47,371.81l1.6-.5,1.4-.4.4,1.4.8,2.8.4,1.4-1.3.4-1.1.3h0l-.5.2h0c-4.2,1.3-6.6,2-10.8.1-1.6-.7-3.4-2.4-5.1-5.1-7.9-12.2-11.3-45.3-6.6-55.1l.6-1.2,1.2.5,2.7,1.1,1.4.6-.7,1.4s-.8,1.6-.8,9.1c-.1,12.8-.1,28.9,6.8,40.2,1.2,1.9,2.2,3,3,3.4,2.1.7,3.8.3,6.6-.6Z" style="fill:#8fb2ee; fill-rule:evenodd;"/><path d="m103.17,378.31c-3.2.9-6.3-.4-7-2.9s1.4-5.3,4.5-6.2c3.2-.9,6.3.4,7,2.9.7,2.5-1.3,5.2-4.5,6.2Z" style="fill:#0d0c40; fill-rule:evenodd;"/><path d="m82.77,281.31c-1.6,4.1-3,8.1-4,12-1.1,3.9-1.9,7.6-2.6,10.9-.3,1.8-.6,3.6-.9,5.4-.3,1.7-.5,3.3-.6,4.8-.3,1.7-.5,3.3-.6,4.6-.1,1.4-.1,2.4-.1,2.9l.1,2.8,2.8-.1,2.4-.1,2.3.1,2.8.2.2-2.8c.1-.9.1-1.9.2-3h0c.1-.9.2-2,.3-3.3.1-.5.2-1,.4-1.6s.3-1.2.5-1.7c.7-1.6,1.5-3,2.4-4.2,2-2.8,4.4-4.6,7.1-5.3,2.7-.7,5.7-.4,8.9,1,1.4.6,2.8,1.5,4.3,2.5.5.4.9.8,1.4,1.2.4.4.8.8,1.3,1.3.7.9,1.4,1.8,2,2.6.7.9,1.3,1.7,1.8,2.5l1.6,2.3,2.3-1.5,1.9-1.3,2.1-1.1,2.6-1.4-1.5-2.5c-.3-.5-.9-1.5-1.6-2.5-.7-1.1-1.7-2.3-2.9-3.7-.9-1.2-2-2.5-3.1-3.8-1.2-1.4-2.4-2.8-3.6-4.2-2.4-2.6-5-5.4-8-8.2-3-2.8-6.2-5.6-9.8-8.3l-1.1-.9-1.4.4-7.9,2.2-1.4.4-.6,1.4h0Zm13.1,11c-1.1.1-2.1.3-3.1.6-1.1.3-2.1.6-3.1,1l.2-.8h0c.5-1.6,1-3.1,1.6-4.7,1,.8,2.2,1.8,3.4,2.8l1,1.1Z" style="fill:#0d0c40; fill-rule:evenodd;"/><path d="m85.17,280.81c-3.2-8.5-5.3-18.7-5.8-29.2-.6-12.6,1-25.7,5.6-36.7,4.8-11.4,12.8-20.7,24.9-25.2,4.3-1.6,10.1-2.7,15.3-3l-.7,8.1c-4.4.2-8.4,1-11.9,2.3-9.8,3.7-16.3,11.4-20.3,20.9-4.2,9.9-5.6,21.8-5,33.2.5,9.7,2.4,19.1,5.3,26.8l-7.4,2.8Z" style="fill:#0d0c40; fill-rule:evenodd;"/><path d="m231.67,322.21c7.6-9.3,15.8-32.5,17.6-56.8.9-11.7.3-23.6-2.6-34.1-2.8-10.3-7.8-19.4-15.8-25.9-6.9-5.6-16.1-9.4-28.2-10.3l-.7-7.9c.6,0,2.5.1,3.1.2,12.9,1.3,23,5.5,30.8,11.9,9.3,7.6,15.2,18.1,18.4,29.9,3.2,11.5,3.9,24.3,2.9,36.8-1.9,25.9-11,50.9-19.4,61.2l-6.1-5Z" style="fill:#0d0c40; fill-rule:evenodd;"/><path d="m236.67,358.21c10.4-6.8,13.2-20.5,6.2-30.6s-21.2-12.8-31.6-6-13.2,20.5-6.2,30.6c7,10.2,21.1,12.8,31.6,6Z" style="fill:#8fb2ee; fill-rule:evenodd;"/><path d="m232.37,352.21c7-4.5,8.8-13.7,4.1-20.5-4.7-6.8-14.1-8.5-21.1-4s-8.8,13.7-4.1,20.5c4.7,6.7,14.2,8.5,21.1,4h0Zm-2.9-4.2c-4.6,3-10.8,1.8-13.9-2.6s-1.9-10.5,2.7-13.5,10.8-1.8,13.9,2.6c3.1,4.5,1.9,10.5-2.7,13.5Z" style="fill:#fff; fill-rule:evenodd;"/><path d="m129.27,159.21c10.4,18,33.4,35.8,50.4,34.8,16.9-1.1,20.6-17.7,20.6-17.7l-2.3-26.5-68.7,9.4Z" style="fill:#de9c6d; fill-rule:evenodd;"/><path d="m164.37,12.01c-14.1.3-56.4,1.8-57.1,56.7-.7,54.9,9.8,75,16.5,83.2,6.7,8.2,13.6,15.6,27.3,19.6,3.6,4,7.3,5.5,13.3,6.4,6-.9,9.8-2.4,13.3-6.4,13.7-3.9,20.6-11.4,27.3-19.6,6.7-8.2,17.2-28.3,16.5-83.2-.7-54.8-43-56.3-57.1-56.7Z" style="fill:#f2b88e; fill-rule:evenodd;"/><path d="m167.97,90.71c4-.6,33.5-5.3,48.5-.3,3.3,7.8-4,23.1-6.7,24.7s-27.9,2-32.7,1.1c-4.9-.2-7.4-17.6-8.1-19.8-.2-.6-.4-1.4-.5-2.1-4-4.5-4-4.8-8.1,0-.1.7-.3,1.4-.5,2.1-.7,2.3-3.3,19.7-8.1,19.8-4.9.8-30,.5-32.7-1.1s-9.9-16.9-6.7-24.7c15-5,44.5-.3,48.5.3,3.6-.6,3.4-.6,7.1,0h0Zm-11.6,2.2c-2.8-.4-27.3-4.4-39.7-.3-2.7,6.4,3.3,18.9,5.5,20.2,2.2,1.3,22.8,1.6,26.7.9,4-.1,6.1-14.3,6.7-16.2.5-1.8.8-4.6.8-4.6h0Zm16,0s.3,2.8.9,4.7c.6,1.9,2.7,16.1,6.7,16.2,4,.7,24.5.4,26.7-.9s8.1-13.8,5.5-20.2c-12.5-4.2-37-.2-39.8.2Z" style="fill:#de9c6d; fill-rule:evenodd;"/><path d="m164.37,12.01c-14.1.3-56.7,24.3-57.1,56.7-.4,32.4-.1,11.9.4,19.7,27.1,12.6,12.2-42,17.1-45,12,3.3,21.1,25.3,38.7,26.4,15.5,1,30.3-5.8,37.8-1.5,7.5,4.4,2.2,16,18.8,17,.5-7.5,1.9,15.6,1.5-16.5-.5-32.2-43.1-56.4-57.2-56.8Z" style="fill:#de9c6d; fill-rule:evenodd;"/><path d="m216.57,92.41c1.3-3.5,3-5.9,7.3-6.8s12.1,1.3,12.1,13.5-10.2,22.7-16.6,21.2c-6.5-1.4-3.4-24.6-2.8-27.9Z" style="fill:#f2b88e; fill-rule:evenodd;"/><path d="m125.67,43.81c-5,3,4.5,46.7-18.2,43.6-11.9-16-14.3-56.1,8.2-66.6C122.07-.59,141.97.31,163.77,0c52.1-.7,70.2,46.6,57.5,86.4-17-.7-12.5-21.3-20.1-25.7-7.5-4.4-22.3,2.4-37.8,1.5-17.6-1.1-25.7-15.1-37.7-18.4Z" style="fill:#381001; fill-rule:evenodd;"/><path d="m111.47,92.51c-1.8-3.3-3.9-6-8.2-6.9s-12.1,1.3-12.1,13.5,10.2,22.7,16.6,21.2c6.4-1.4,3.7-27.8,3.7-27.8Z" style="fill:#f2b88e; fill-rule:evenodd;"/><path d="m106.67,98.41c0-1.5-5.9-8.6-11-3.8" style="fill:none; stroke:#000; stroke-miterlimit:22.93; stroke-width:2.39px;"/><path d="m220.57,98.41c0-1.5,5.9-8.6,11-3.8" style="fill:none; stroke:#000; stroke-miterlimit:22.93; stroke-width:2.39px;"/><path d="m132.57,17.11c-11.1,14.4-7.9,40.2,9.3,50.8" style="fill:none; stroke:#381001; stroke-miterlimit:22.93; stroke-width:2.39px;"/><line x1="120.47" y1="114.21" x2="106.57" y2="85.71" style="fill:none; stroke:#fff; stroke-miterlimit:22.93; stroke-width:2.39px;"/><path d="m212.87,103.61c-3.6,4.1-21,16.1-42.9,4.3-1.5-.8-4-2.9-9.8,0-22.4,10.9-40.8.9-44.3-3.2-3.6-4.1,8.4,18.5-4.3,18.2,3.5,16.1,8.5,24.5,12.2,29.1,8.2,10.1,22.1,25.9,40.6,25.9s32.4-15.8,40.6-25.9c3.6-4.5,8.4-12.4,11.9-27.6-9-3.8-4-20.8-4-20.8Z" style="fill:#fff; fill-rule:evenodd;"/><line x1="207.87" y1="114.21" x2="221.77" y2="85.71" style="fill:none; stroke:#fff; stroke-miterlimit:22.93; stroke-width:2.39px;"/><path d="m167.97,88.71c4-.6,33.5-5.3,48.5-.3,3.3,7.8-4,23.1-6.7,24.7s-27.9,2-32.7,1.1c-4.9-.2-7.4-17.6-8.1-19.8-.2-.6-.4-1.4-.5-2.1q-4-.9-8.1,0c-.1.7-.3,1.4-.5,2.1-.7,2.3-3.3,19.7-8.1,19.8-4.9.8-30,.5-32.7-1.1s-9.9-16.9-6.7-24.7c15-5,44.5-.3,48.5.3,3.6-.7,3.4-.7,7.1,0h0Zm-11.6,2.1c-2.8-.4-27.3-4.4-39.7-.3-2.7,6.4,3.3,18.9,5.5,20.2,2.2,1.3,22.8,1.6,26.7.9,4-.1,6.1-14.3,6.7-16.2.5-1.8.8-4.6.8-4.6h0Zm16,0s.3,2.8.9,4.6c.6,1.9,2.7,16.1,6.7,16.2,4,.7,24.5.4,26.7-.9s8.1-13.8,5.5-20.2c-12.5-4-37-.1-39.8.3Z" style="fill-rule:evenodd;"/><path d="m123.77,151.91c8.2,10.1,22.1,25.9,40.6,25.9s32.4-15.8,40.6-25.9c3.6-4.5,8.4-12.4,11.9-27.6" style="fill:none; stroke:#8fb2ee; stroke-miterlimit:22.93; stroke-width:2.39px;"/><path d="m190.47,93.21c-2.5.5-4.3,3.5-4,6.8s2.5,5.5,5,5.1c2.5-.5,4.3-3.5,4-6.7-.3-3.4-2.5-5.7-5-5.2Z" style="fill-rule:evenodd;"/><path d="m137.37,93.21c-2.5.5-4.3,3.5-4,6.8s2.5,5.5,5,5.1c2.5-.5,4.3-3.5,4-6.7-.3-3.4-2.5-5.7-5-5.2Z" style="fill-rule:evenodd;"/><path d="m149.07,72.11c2.4-.2,4.5,1.6,4.7,4s-1.6,4.5-4,4.7l-17.7,1.4c-2.4.2-4.5-1.6-4.7-4s1.6-4.5,4-4.7l17.7-1.4Z" style="fill:#381001; fill-rule:evenodd;"/><path d="m194.87,74.01c2.4,0,4.4,1.9,4.5,4.3,0,2.4-1.9,4.4-4.3,4.5l-12,.2c-2.4,0-4.4-1.9-4.5-4.3,0-2.4,1.9-4.4,4.3-4.5l12-.2Z" style="fill:#381001; fill-rule:evenodd;"/><path d="m183.97,94.71s7.1-4.5,13.8,0" style="fill:none; stroke:#000; stroke-miterlimit:22.93; stroke-width:2.39px;"/><path d="m144.77,94.71s-7.1-4.5-13.8,0" style="fill:none; stroke:#000; stroke-miterlimit:22.93; stroke-width:2.39px;"/><path d="m57.87,269.01c1.8,31.2,5.9,129.1,8,155.5" style="fill:none; stroke:#8fb2ee; stroke-miterlimit:22.93; stroke-width:2.39px;"/><path d="m275.87,244.41c-3.2,7.7-9.6,27.7-7.6,117.7" style="fill:none; stroke:#8fb2ee; stroke-miterlimit:22.93; stroke-width:2.39px;"/><path d="m112.17,395.21s117.4,23.1,125.4,24.7" style="fill:none; stroke:#8fb2ee; stroke-miterlimit:22.93; stroke-width:2.39px;"/><path d="m128.67,446.41c25.9,11,92.7,44.1,182.8,50.8" style="fill:none; stroke:#8fb2ee; stroke-miterlimit:22.93; stroke-width:2.39px;"/><polyline points="147.37 401.71 231.47 387.11 231.57 418.71" style="fill:none; stroke:#8fb2ee; stroke-miterlimit:22.93; stroke-width:2.39px;"/><path d="m9.57,464.91s7,21.7,12.7,31c17.6,3,97.9-16.9,106.5-19.7" style="fill:none; stroke:#8fb2ee; stroke-miterlimit:22.93; stroke-width:2.39px;"/></svg>