<?xml version="1.0" encoding="UTF-8"?><svg id="Layer_1" xmlns="http://www.w3.org/2000/svg" viewBox="0 0 177.11 430.45"><g id="OBJECTS"><rect x="31.34" y="409.05" width="121.6" height="21.4" style="fill:#17577a;"/><path d="m138.64,252.45c3.4-18.7,24.8-120.3,24.8-120.3l-46.8-30.4-36.6,10.9-26.7,7.8s-9.7,29.2-18.7,55.7c-9,26.5,7.1,38.4,9.7,45.9,2.7,7.5-1.5,35.3-1.5,35.3,0,0-13.7,66.4-21.5,153.7h136.3s5.6-48.3-7.3-108.5c-2.4-10.9-12.7-34.7-11.7-50.1Z" style="fill:#efeee4;"/><path d="m53.34,120.45s-17,1.5-26.5,24.6S3.94,215.05,2.04,230.35c-1.9,15.3,43.1,4.4,43.1,4.4l4.1-45.9,4.1-68.4Z" style="fill:#efeee4;"/><path d="m95.94,296.55c28.6,3.9,43.3-33.2,43.3-33.2l-95.2-16.1c-.6,5.8-1.3,10.2-1.3,10.2,0,0-1,2.9-2.5,7.8.1-.1,27.2,27.4,55.7,31.3Z" style="fill:#a5a39a; isolation:isolate; opacity:.65;"/><path d="m64.24,171.75s-10.5,16.3-9,29.4,3.2,40.8.7,60.5c-2.4,19.7-15.8,149.6-15.8,149.6" style="fill:none; stroke:#8e8b7e; stroke-miterlimit:10; stroke-width:.75px;"/><path d="m70.14,225.35s17.8-6.4,36.1.9l-8,24.4-31,3.7c-.1,0-2.2-23,2.9-29Z" style="fill:#bd8068;"/><path d="m48.74,223.15s-13.3-19.1-23-21.2c-4-.9-3.3,4.7-3.3,4.7,0,0-4.2-1.6-6.9.2-2.1,1.4-.5,6.4-.5,6.4,0,0-2.9,1.6-3.5,3.5-.5,1.8,2.7,4.7,2.7,4.7,0,0-1.6,4.6.2,5.5,1.9.9,34.3-3.8,34.3-3.8Z" style="fill:#bd8068;"/><path d="m50.84,268.55s-9.2-2.9-12.2-13.1l11.7-6.3,5.6,12.6-5.1,6.8Z" style="fill:#bd8068;"/><path d="m22.54,206.75s8.9,5.3,12.6,10" style="fill:none; stroke:#590a06; stroke-miterlimit:10; stroke-width:.86px;"/><path d="m15.04,213.25s7.1,1.3,13.1,7.1" style="fill:none; stroke:#590a06; stroke-miterlimit:10; stroke-width:.86px;"/><path d="m14.34,221.45s6.2,0,10,3.8" style="fill:none; stroke:#590a06; stroke-miterlimit:10; stroke-width:.86px;"/><path d="m2.34,227.95s-5.2,20.4,0,29.4,29.8,6.8,52.6,0l17.5-4.4s-5.1-14.6,0-31.8l-55.4,3.6s-12.1-.2-14.7,3.2Z" style="fill:#efeee4;"/><path d="m122.84,266.15s6.3,21.6,9.2,40.3c6.2,39.2,5.1,104.4,5.1,104.4" style="fill:none; stroke:#8e8b7e; stroke-miterlimit:10; stroke-width:.75px;"/><path d="m54.24,222.35c-1.9,7.7-4.2,22.2,1.8,34.8l16.5-4.1s-5.1-14.6,0-31.8c-6.9.3-13,.7-18.3,1.1Z" style="fill:#d8d6cb;"/><path d="m163.44,132.15s18.6,7.3,12.4,41.2-37.6,95.2-48.1,105c-10.6,9.8-24.8,17.5-44.5,8.8-19.7-8.8-34.5-16.8-34.5-16.8l1.3-11.6s30.5-11.7,41.3-14.6c22.5-34.3,41.1-77.3,49.8-92.6,8.8-15.4,22.3-19.4,22.3-19.4Z" style="fill:#efeee4;"/><path d="m91.34,244.15s13-3.6,21.6-1.1" style="fill:none; stroke:#8e8b7e; stroke-miterlimit:10; stroke-width:.75px;"/><path d="m22.24,263.25c-1.6-10.8-10.9-19.1-22.2-19.2-.2,4.9.3,9.9,2.3,13.2,2.7,4.6,10.2,6.3,19.9,6Z" style="fill:#d8d6cb;"/><path d="m113.84,268.55c-12.3,0-22.5,9.1-24.2,20.9,16.4,4.6,28.7-2.4,38-11.1.8-.8,1.8-1.9,2.9-3.2-4.3-4.1-10.2-6.6-16.7-6.6Z" style="fill:#d8d6cb;"/><path d="m64.34,253.35c-8,2.9-14.3,5.4-14.3,5.4l-1.3,11.6s6.6,3.6,17,8.6c-1.6-5-3.7-14.5-1.4-25.6Z" style="fill:#d8d6cb;"/><path d="m114.54,215.75s30.4-10.9,31.2-27.5c.8-16.5-11.2,17.5-31.2,27.5Z" style="fill:#d8d6cb;"/><path d="m80.84,223.15s16-3.1,19.4-9.8c3.4-6.8-8,4.9-19.4,9.8Z" style="fill:#d8d6cb;"/><path d="m143.44,116.55s19.4,13.7-39.2,70.4l2.1,3.2s60-55,39.1-77.8c-.7,1.4-2,4.2-2,4.2Z" style="fill:#17577a;"/><path d="m74.54,109.45s-14.3,1.2-25.8,44.9l3.5.5s6.9-32.3,22.3-45.4Z" style="fill:#17577a;"/><path d="m44.04,192.45h0l8.1-32.5c.2-.8.1-1.7-.4-2.4-.4-.7-1.1-1.1-1.8-1.3-1.7-.4-3.4.8-3.8,2.4l-7.6,32h0c-1.8-.4-2.9-2.2-2.5-4l6.9-28.9c.8-3.4,4.2-5.5,7.6-4.8,1.9.4,3.5,1.6,4.4,3.4.7,1.4.8,3.1.4,4.7l-7.3,29c-.4,1.8-2.2,2.9-4,2.4Z" style="fill:#1d1d1b;"/><path d="m38.54,190.65h0c1,.2,2-.4,2.2-1.4l.3-1.6c.1-.6,0-1.2-.4-1.6l-.8-.9s-1.7,2-1.3,5.5Z" style="fill:#1aa5c9;"/><path d="m44.04,192.45s-1.2-2.2-.8-3.9c.5-1.7,2.1-1.6,2.1-1.6l-1.3,5.5Z" style="fill:#1aa5c9;"/><path d="m163.44,132.15s-17.8,4.6-29,32.2c-11.2,27.6-43.1,79.8-43.1,79.8,0,0-20.3,6.1-27,9.3,0,0-9.4,4.2-14.3,5.4" style="fill:none; stroke:#8e8b7e; stroke-miterlimit:10; stroke-width:.75px;"/><path d="m36.24,208.75c-8-13.4-1.7-32.6-1.7-32.6l18.7-55.7" style="fill:none; stroke:#8e8b7e; stroke-miterlimit:10; stroke-width:.75px;"/><path d="m75.24,303.75s12.9,23.8,36.2,24.3v-10s-19.7-3.9-26.5-19l-9.7,4.7Z" style="fill:#d8d6cb;"/><line x1="73.94" y1="147.75" x2="64.24" y2="171.75" style="fill:none; stroke:#8e8b7e; stroke-miterlimit:10; stroke-width:.75px;"/><path d="m99.24,242.55s6.6-5.9,15.4-7.6" style="fill:none; stroke:#8e8b7e; stroke-miterlimit:10; stroke-width:.75px;"/><polygon points="64.24 186.45 90.14 192.45 92.74 185.15 67.24 180.25 64.24 186.45" style="fill:#d8d6cb;"/><path d="m109.24,195.05c-1.7,4.2-6.4,6.2-10.6,4.6-4.2-1.7-6.2-6.4-4.6-10.6,1.7-4.2,6.4-6.2,10.6-4.6,4.2,1.7,6.3,6.4,4.6,10.6Z" style="fill:#a5a39a;"/><path d="m105.84,193.75c-.9,2.3-3.5,3.5-5.9,2.5-2.3-.9-3.5-3.5-2.6-5.9.9-2.3,3.5-3.5,5.9-2.5,2.4.9,3.6,3.6,2.6,5.9Z" style="fill:none; stroke:#fff6e7; stroke-miterlimit:10; stroke-width:1.17px;"/><path d="m69.84,29.35c.3-1.1.6-2.2,1-3.2C78.14,4.85,102.04-4.35,122.84,1.95c18.8,5.7,31,22.8,30.9,42.3,0,5.3-.9,10.6-2.2,15.8-6.9,19.4-13.6,30.7-6.3,40.3,5.1,6.7,10.7,15.8,3.7,21.1l-78.8-.5c10.2-10.5,1.9-33.2-.3-45.3-2.8-14.8-4.2-31.4,0-46.3Z" style="fill:#705d84;"/><path d="m88.34,115.35s-7.6-3.9-12.8,14.6-8.8,22.9-8.8,22.9l14,6.3,34.9-38.7,6.3-11c-.1,0-30.2-.9-33.6,5.9Z" style="fill:#1aa5c9;"/><path d="m73.94,147.75l7.6-26.3,11.2-22.1s-19.4,7.1-28.4,20.9l6.8,9.5-13.4,1.7,6.6,40.4,9.6-24.1Z" style="fill:#d8d6cb;"/><path d="m116.84,94.65s18,10.7,12.4,43.1l-21.2-2.4,4.1,17.3-47.9,19.2,9.7-24.1s33.4-17.5,43.3-37.7c-4.8-7.6-3-11.8-.4-15.4Z" style="fill:#d8d6cb;"/><path d="m120.44,65.65s-5.6,29.8-3.2,44.4c-11.2,13.6-28.7,13.1-35.7,11.4l6.8-17.5,2.4-18,29.7-20.3Z" style="fill:#bd8068;"/><path d="m88.34,103.95c16-6.8,21.7-24,21.7-24l-19.6,7.9-2.1,16.1Z" style="fill:#753835;"/><path d="m84.24,15.35c-6.2-1-11.5,5.1-12.9,11.3-2.9,13.1-6.8,37.3-1.9,56.3,2.8,11.7,18.4,18.1,35.4,2.1,17-15.9,15.8-33.6,15.8-33.6,0,0-20.3-33.6-36.4-36.1Z" style="fill:#bd8068;"/><path d="m103.54,54.25c-1.1-3.6-4.3-6.4-8.3-6.7-5.3-.5-10,3.4-10.5,8.7v.6l18.8-2.6Z" style="fill:#efeee4;"/><path d="m101.24,52.85c0-1.2-.3-2.3-.9-3.3-1.4-1.1-3.2-1.9-5.1-2.1-1.8-.2-3.5.2-5,.9-1.1,1.2-1.8,2.7-1.8,4.4,0,1.2.4,2.4,1,3.4l11.6-1.6c.1-.5.2-1.1.2-1.7Z" style="fill:#3a0504;"/><path d="m84.74,56.85s-.2-7.3,8.3-9.3c7.5-1.8,10.5,6.7,10.5,6.7" style="fill:none; stroke:#3a0504; stroke-miterlimit:10; stroke-width:1.1px;"/><path d="m83.94,38.55s10.7-4.9,19.9,3.6c-3.3-7.2-12.8-10.1-19.9-8.5v4.9Z" style="fill:#3a0504;"/><path d="m67.34,55.45c1,.2,2.3.3,4,.6-.8-3.3-2.2-6-3.5-7.8-.2,2.3-.4,4.8-.5,7.2Z" style="fill:#3a0504;"/><path d="m71.84,40.25l1-5.6c-1.4.1-2.4.3-3.1.6-.3,1.6-.5,3.3-.8,5,1.3-.2,2.9,0,2.9,0Z" style="fill:#3a0504;"/><ellipse cx="98.34" cy="63.35" rx="6.9" ry="3.7" style="fill:#b7554e;"/><path d="m67.14,60.35c0,2,0,4,.1,6,1.7-.7,2.9-1.7,2.9-3,0-1.2-1.2-2.3-3-3Z" style="fill:#b7554e;"/><path d="m84.74,49.75c1.1-1.3,2.4-2.3,3.8-3.2,1.4-.9,3-1.5,4.7-1.8s3.5-.1,5,.6c1.6.6,2.9,1.8,4,3-1.3-1-2.7-1.9-4.2-2.4s-3.1-.7-4.7-.4c-1.6.2-3.1.8-4.5,1.5-1.4.8-2.8,1.7-4.1,2.7Z" style="fill:#8c4a43;"/><path d="m76.64,79.95s4.1-.3,8.1-2.2c-1.8,4.1-4.7,5.3-8.1,2.2Z" style="fill:#a0624e;"/><path d="m88.54,71.25c0,.6-.5,1-1,1-.6,0-1-.5-1-1,0-.6.5-1,1-1,.5-.1,1,.4,1,1Z" style="fill:#a0624e;"/><path d="m74.34,74.85c0,.6-.5,1-1,1-.6,0-1-.5-1-1,0-.6.5-1,1-1,.5-.1,1,.4,1,1Z" style="fill:#a0624e;"/><path d="m73.94,74.85s5.3.4,13.5-3.6" style="fill:none; stroke:#590a06; stroke-linecap:round; stroke-miterlimit:10; stroke-width:.86px;"/><line x1="126.04" y1="43.85" x2="102.34" y2="49.65" style="fill:none; stroke:#584569; stroke-miterlimit:10; stroke-width:1.3px;"/><path d="m102.74,53.05c0,6.9-5.6,12.4-12.4,12.4s-12.4-5.6-12.4-12.4,5.6-12.4,12.4-12.4c6.8-.1,12.4,5.5,12.4,12.4Z" style="fill:#fff; isolation:isolate; opacity:.27;"/><path d="m102.74,53.05c0,6.9-5.6,12.4-12.4,12.4s-12.4-5.6-12.4-12.4,5.6-12.4,12.4-12.4c6.8-.1,12.4,5.5,12.4,12.4Z" style="fill:none; stroke:#584569; stroke-miterlimit:10; stroke-width:1.3px;"/><ellipse cx="63.64" cy="52.35" rx="10.8" ry="11.8" style="fill:#fff; isolation:isolate; opacity:.27;"/><ellipse cx="63.64" cy="52.35" rx="10.8" ry="11.8" style="fill:none; stroke:#584569; stroke-miterlimit:10; stroke-width:1.3px;"/><path d="m75.14,54.95s-2.6,6.8-1.6,14.1l5.3-1.1" style="fill:none; stroke:#590a06; stroke-miterlimit:10; stroke-width:.86px;"/><path d="m74.04,55.25s1.8-1.5,4,0" style="fill:none; stroke:#584569; stroke-miterlimit:10; stroke-width:1.3px;"/><path d="m66.74,113.75c2.3,23,66,23.7,82.2,7.8,0,0-9.6-16.1-13.3-36.7-4.8-26.3-11.7-56.1-18.5-55.7,0,0,7.8,66.9-33.7,69.7-4.5.3-10.7-10.8-9.9-6.3,1.4,8.2-7.2,16.5-6.8,21.2Z" style="fill:#705d84;"/><path d="m114.64,14.85c3.9,24,8.5,77.6-28.5,84" style="fill:none; stroke:#584569; stroke-linecap:round; stroke-linejoin:round; stroke-width:.75px;"/><path d="m74.34,93.95c6.4,17.5,22.6,24.2,40.4,19.5,8.9-2.3,21.4-10.1,23.6-4.3,3.2,8.3-30.8,17-53.1,2.2" style="fill:none; stroke:#584569; stroke-linecap:round; stroke-linejoin:round; stroke-width:.75px;"/><path d="m136.64,45.25s-2.3,56.7-42.7,60.7" style="fill:none; stroke:#584569; stroke-linecap:round; stroke-linejoin:round; stroke-width:.75px;"/></g></svg>